<svg width="28" height="29" viewBox="0 0 28 29" fill="none" xmlns="http://www.w3.org/2000/svg">
<path fill-rule="evenodd" clip-rule="evenodd" d="M20.2593 10.0459H7.74041C7.68227 10.0368 7.62308 10.0368 7.56494 10.0459L13.9999 14.8971L20.4348 10.0459C20.3767 10.0368 20.3175 10.0368 20.2593 10.0459Z" fill="#EC9357"/>
<path fill-rule="evenodd" clip-rule="evenodd" d="M24.5723 0.428223H3.42773C2.51864 0.428223 1.64678 0.789358 1.00396 1.43218C0.361135 2.07501 1.03739e-08 2.94686 1.03739e-08 3.85596L1.03739e-08 25.0002C-3.50105e-05 25.4504 0.0886001 25.8961 0.260844 26.312C0.433088 26.7279 0.685568 27.1058 1.00387 27.4242C1.32216 27.7425 1.70005 27.995 2.11594 28.1673C2.53182 28.3396 2.97757 28.4282 3.42773 28.4282H24.5723C25.0224 28.4282 25.4682 28.3396 25.8841 28.1673C26.3 27.995 26.6778 27.7425 26.9961 27.4242C27.3144 27.1058 27.5669 26.7279 27.7392 26.312C27.9114 25.8961 28 25.4504 28 25.0002V3.85596C28 2.94686 27.6389 2.07501 26.996 1.43218C26.3532 0.789358 25.4814 0.428223 24.5723 0.428223ZM6.044 9.86502C6.13728 9.67241 6.26212 9.49674 6.41333 9.34529C6.76522 8.99302 7.24262 8.79494 7.74053 8.79462H20.2595C20.7574 8.79494 21.2348 8.99302 21.5867 9.34529C21.7379 9.49674 21.8627 9.67241 21.956 9.86502C22.0183 9.99533 22.0336 10.1432 21.9994 10.2835C21.9651 10.4238 21.8834 10.548 21.768 10.6349L14.3755 16.1816C14.2672 16.2628 14.1354 16.3068 14 16.3068C13.8646 16.3068 13.7328 16.2628 13.6245 16.1816L6.232 10.6349C6.11664 10.548 6.03489 10.4238 6.00063 10.2835C5.96636 10.1432 5.98169 9.99533 6.044 9.86502ZM22.1373 18.185C22.1366 18.6828 21.9386 19.1601 21.5865 19.5121C21.2345 19.8641 20.7573 20.0622 20.2595 20.0629H7.74053C7.24239 20.0622 6.76487 19.8639 6.4128 19.5114C6.06073 19.159 5.86288 18.6813 5.86267 18.1832V13.1762C5.86267 13.0102 5.92861 12.851 6.04598 12.7337C6.16335 12.6163 6.32254 12.5504 6.48853 12.5504C6.65452 12.5504 6.81372 12.6163 6.93109 12.7337C7.04846 12.851 7.1144 13.0102 7.1144 13.1762V18.1832C7.1144 18.2654 7.1306 18.3468 7.16207 18.4227C7.19354 18.4987 7.23966 18.5677 7.29781 18.6258C7.35595 18.6839 7.42498 18.73 7.50094 18.7615C7.57691 18.7929 7.65832 18.8091 7.74053 18.809H20.2595C20.3417 18.8091 20.4231 18.7929 20.4991 18.7615C20.575 18.73 20.644 18.6839 20.7022 18.6258C20.7603 18.5677 20.8065 18.4987 20.8379 18.4227C20.8694 18.3468 20.8856 18.2654 20.8856 18.1832V13.1762C20.8856 13.0102 20.9515 12.851 21.0689 12.7337C21.1863 12.6163 21.3455 12.5504 21.5115 12.5504C21.6775 12.5504 21.8366 12.6163 21.954 12.7337C22.0714 12.851 22.1373 13.0102 22.1373 13.1762V18.185Z" fill="#EC9357"/>
</svg>
