<svg width="28" height="29" viewBox="0 0 28 29" fill="none" xmlns="http://www.w3.org/2000/svg">
<path fill-rule="evenodd" clip-rule="evenodd" d="M24.5792 0.973633C25.4863 0.974057 26.3562 1.3346 26.9976 1.97603C27.639 2.61746 27.9996 3.48731 28 4.39443V25.5528C27.9996 26.46 27.639 27.3298 26.9976 27.9712C26.3562 28.6127 25.4863 28.9732 24.5792 28.9736H3.4208C2.51368 28.9732 1.64383 28.6127 1.0024 27.9712C0.360965 27.3298 0.000423988 26.46 0 25.5528L0 4.39443C0.000423988 3.48731 0.360965 2.61746 1.0024 1.97603C1.64383 1.3346 2.51368 0.974057 3.4208 0.973633L24.5792 0.973633ZM14 5.40323C11.4008 5.40323 11.0749 5.41443 10.0533 5.46083C9.03173 5.50723 8.33893 5.6691 7.73013 5.9059C7.09412 6.15183 6.51652 6.52793 6.03434 7.01011C5.55217 7.49229 5.17606 8.06989 4.93013 8.7059C4.69547 9.31337 4.53333 10.0091 4.4872 11.027C4.44107 12.0448 4.4296 12.3736 4.4296 14.9736C4.4296 17.5736 4.4408 17.8987 4.4872 18.9203C4.5336 19.9419 4.69547 20.6347 4.932 21.2435C5.178 21.8795 5.55413 22.457 6.0363 22.9392C6.51846 23.4214 7.09603 23.7975 7.732 24.0435C8.3408 24.28 9.03653 24.4416 10.0552 24.4883C11.0739 24.535 11.4019 24.5459 14.0019 24.5459C16.6019 24.5459 16.9269 24.5347 17.9485 24.4883C18.9701 24.4419 19.6629 24.28 20.2717 24.0435C20.9077 23.7975 21.4853 23.4214 21.9674 22.9392C22.4496 22.457 22.8257 21.8795 23.0717 21.2435C23.3083 20.6347 23.4699 19.939 23.5165 18.9203C23.5632 17.9016 23.5741 17.5736 23.5741 14.9736C23.5741 12.3736 23.5629 12.0486 23.5165 11.027C23.4701 10.0054 23.3083 9.31257 23.0717 8.70377C22.8313 8.06526 22.4546 7.48685 21.9677 7.00883C21.4357 6.47683 20.9011 6.14963 20.2728 5.9051C19.6603 5.6691 18.9645 5.50697 17.9467 5.46083C16.9288 5.4147 16.6 5.40323 14 5.40323ZM14 7.12777C16.5555 7.12777 16.8581 7.13737 17.8667 7.1835C18.8 7.22617 19.3067 7.3819 19.6437 7.5131C20.0904 7.6867 20.4093 7.89417 20.7443 8.22883C21.0792 8.5635 21.2864 8.8827 21.46 9.32937C21.5917 9.66697 21.7475 10.1736 21.7901 11.107C21.8363 12.116 21.8459 12.4187 21.8459 14.9736C21.8459 17.5286 21.8363 17.8318 21.7901 18.8403C21.7475 19.7736 21.5917 20.2803 21.4605 20.6174C21.2869 21.064 21.0797 21.383 20.7448 21.7179C20.4099 22.0528 20.0909 22.26 19.6443 22.4336C19.3067 22.5654 18.8 22.7211 17.8667 22.7638C16.8576 22.8099 16.5549 22.8195 14 22.8195C11.4451 22.8195 11.1419 22.8099 10.1333 22.7638C9.2 22.7211 8.69333 22.5654 8.35627 22.4342C7.9096 22.2606 7.59067 22.0534 7.25573 21.7184C6.9208 21.3835 6.7136 21.0646 6.54 20.6179C6.40827 20.2803 6.25253 19.7736 6.20987 18.8403C6.16373 17.8312 6.15413 17.5286 6.15413 14.9736C6.15413 12.4187 6.16373 12.1155 6.20987 11.107C6.25253 10.1736 6.40827 9.66697 6.53947 9.3299C6.71307 8.88323 6.92027 8.5643 7.2552 8.22937C7.59013 7.89443 7.90907 7.68723 8.35573 7.51363C8.69333 7.3819 9.2 7.22617 10.1333 7.1835C11.1424 7.13737 11.4451 7.12777 14 7.12777ZM14 10.0592C11.2859 10.0592 9.0856 12.2595 9.0856 14.9736C9.0856 17.6878 11.2859 19.888 14 19.888C16.7141 19.888 18.9144 17.6878 18.9144 14.9736C18.9144 12.2595 16.7141 10.0592 14 10.0592ZM14 18.1638C13.3691 18.1638 12.7523 17.9767 12.2277 17.6261C11.703 17.2756 11.2942 16.7774 11.0527 16.1944C10.8112 15.6115 10.7481 14.9701 10.8712 14.3513C10.9943 13.7324 11.2981 13.164 11.7442 12.7179C12.1904 12.2717 12.7588 11.9679 13.3776 11.8448C13.9965 11.7217 14.6379 11.7849 15.2208 12.0263C15.8037 12.2678 16.302 12.6767 16.6525 13.2013C17.003 13.7259 17.1901 14.3427 17.1901 14.9736C17.1901 15.8197 16.854 16.6311 16.2558 17.2294C15.6575 17.8277 14.8461 18.1638 14 18.1638ZM20.2571 9.8651C20.2571 10.0923 20.1897 10.3143 20.0635 10.5032C19.9373 10.6921 19.7579 10.8393 19.5481 10.9262C19.3382 11.0131 19.1073 11.0359 18.8845 10.9916C18.6617 10.9472 18.457 10.8379 18.2964 10.6772C18.1358 10.5166 18.0264 10.312 17.9821 10.0892C17.9378 9.86637 17.9605 9.63544 18.0474 9.42557C18.1344 9.21571 18.2816 9.03633 18.4704 8.91013C18.6593 8.78393 18.8814 8.71657 19.1085 8.71657C19.2594 8.71653 19.4087 8.74622 19.5481 8.80392C19.6875 8.86163 19.8141 8.94623 19.9207 9.05289C20.0274 9.15954 20.112 9.28617 20.1697 9.42553C20.2274 9.5649 20.2571 9.71426 20.2571 9.8651Z" fill="#EC9357"/>
</svg>
