<svg width="39" height="39" viewBox="0 0 39 39" fill="none" xmlns="http://www.w3.org/2000/svg">
<path fill-rule="evenodd" clip-rule="evenodd" d="M34.4043 1.50122e-08H4.59569C3.99219 -4.87642e-05 3.39459 0.118777 2.83702 0.349691C2.27945 0.580605 1.77282 0.919086 1.34607 1.34581C0.919314 1.77252 0.580792 2.27912 0.349833 2.83668C0.118874 3.39423 -1.97136e-09 3.99182 0 4.59531L0 34.4043C0 35.0078 0.118871 35.6054 0.349826 36.163C0.580781 36.7206 0.919296 37.2272 1.34605 37.654C1.77279 38.0807 2.27942 38.4192 2.83699 38.6502C3.39457 38.8811 3.99217 39 4.59569 39H34.4043C35.0078 39 35.6054 38.8811 36.163 38.6502C36.7206 38.4192 37.2272 38.0807 37.654 37.654C38.0807 37.2272 38.4192 36.7206 38.6502 36.163C38.8811 35.6054 39 35.0078 39 34.4043V4.59531C39 3.99182 38.8811 3.39423 38.6502 2.83668C38.4192 2.27912 38.0807 1.77252 37.6539 1.34581C37.2272 0.919086 36.7206 0.580605 36.163 0.349691C35.6054 0.118777 35.0078 -4.87642e-05 34.4043 1.50122e-08ZM30.9901 16.6426C30.7822 16.7101 30.5639 16.7403 30.3453 16.7317C29.3109 16.617 28.2857 16.4309 27.277 16.1746C26.4063 15.8405 25.5594 15.4476 24.742 14.9987V22.3236C24.7531 23.2423 24.6937 24.1604 24.5641 25.0699C24.3689 26.5879 23.7883 28.0307 22.8775 29.2606C21.9667 30.4906 20.7561 31.4668 19.3611 32.0963C18.5412 32.3977 17.7017 32.6428 16.8484 32.8298H15.3029C15.238 32.7994 15.1711 32.7734 15.1027 32.7522C13.5362 32.5532 12.0647 31.8914 10.8764 30.8517C9.688 29.8119 8.83674 28.4413 8.43143 26.9152C8.24467 26.2512 8.10345 25.5752 8.00874 24.892V23.592C8.13094 22.9803 8.22009 22.3689 8.398 21.7687C8.89894 20.1652 9.8671 18.7478 11.1785 17.698C12.4899 16.6481 14.0848 16.0135 15.759 15.8756C16.2593 15.7976 16.7596 15.7753 17.293 15.7311V19.854C17.293 20.1764 17.1262 20.2209 16.8595 20.2997C16.007 20.4956 15.1707 20.7564 14.3579 21.0797C13.7322 21.3156 13.1946 21.7389 12.8185 22.2919C12.4425 22.8449 12.2464 23.5006 12.2571 24.1692C12.2101 24.9278 12.3874 25.6834 12.767 26.3418C13.1466 27.0002 13.7117 27.5323 14.3917 27.8716C15.0137 28.2561 15.736 28.4467 16.4667 28.4189C17.1973 28.3912 17.9032 28.1465 18.4942 27.716C18.9365 27.399 19.3075 26.9928 19.5831 26.5236C19.8587 26.0544 20.0328 25.5326 20.0943 24.9919C20.2273 23.8854 20.283 22.7708 20.2611 21.6565V6.83651C20.2945 6.60289 20.2722 6.3908 20.2611 6.16794H24.7085C24.7564 6.36212 24.7936 6.55878 24.82 6.75703C24.955 8.30394 25.6623 9.74483 26.8034 10.7979C27.9445 11.8511 29.4374 12.4406 30.9901 12.4514V16.6426Z" fill="#EC9357"/>
</svg>
