<svg width="28" height="28" viewBox="0 0 28 28" fill="none" xmlns="http://www.w3.org/2000/svg">
<path fill-rule="evenodd" clip-rule="evenodd" d="M24.5792 0C25.4863 0.000423988 26.3562 0.360965 26.9976 1.0024C27.639 1.64383 27.9996 2.51368 28 3.4208V24.5792C27.9996 25.4863 27.639 26.3562 26.9976 26.9976C26.3562 27.639 25.4863 27.9996 24.5792 28H3.4208C2.51368 27.9996 1.64383 27.639 1.0024 26.9976C0.360965 26.3562 0.000423988 25.4863 0 24.5792L0 3.4208C0.000423988 2.51368 0.360965 1.64383 1.0024 1.0024C1.64383 0.360965 2.51368 0.000423988 3.4208 0L24.5792 0ZM21.3704 6.98373C19.5197 5.13093 17.0584 4.11013 14.4371 4.10907C9.03387 4.10907 4.63627 8.50613 4.63413 13.9109C4.63218 15.631 5.08351 17.3213 5.94267 18.8115L4.5512 23.8909L9.74773 22.528C11.1851 23.3108 12.7956 23.721 14.4323 23.7211H14.4363C19.84 23.7211 24.2365 19.3235 24.24 13.92C24.244 12.6315 23.9924 11.3551 23.4999 10.1645C23.0073 8.97387 22.2835 7.89277 21.3704 6.98373ZM14.4371 22.0656H14.4336C12.9745 22.0658 11.5423 21.6735 10.2869 20.9299L9.98933 20.7533L6.9048 21.5621L7.728 18.5557L7.53413 18.2475C6.71811 16.9486 6.28627 15.4454 6.28853 13.9115C6.2904 9.4192 9.94667 5.76453 14.4395 5.76453C15.5096 5.76509 16.5692 5.97644 17.5576 6.38651C18.5461 6.79658 19.4441 7.39734 20.2004 8.15448C20.9567 8.91163 21.5564 9.81032 21.9653 10.7993C22.3743 11.7882 22.5844 12.848 22.5837 13.9181C22.5819 18.4107 18.9269 22.0656 14.4363 22.0656H14.4371ZM18.9067 15.9635C18.6616 15.8408 17.4576 15.2485 17.2331 15.1667C17.0085 15.0848 16.8451 15.044 16.6819 15.2893C16.5187 15.5347 16.0493 16.0861 15.9064 16.2493C15.7635 16.4125 15.6205 16.4333 15.3757 16.3107C15.1309 16.188 14.3416 15.9293 13.4061 15.0949C12.6779 14.4453 12.1861 13.6435 12.0435 13.3981C11.9008 13.1528 12.0283 13.0203 12.1501 12.8984C12.2605 12.7885 12.3952 12.6123 12.5176 12.4691C12.64 12.3259 12.6811 12.224 12.7627 12.0605C12.8443 11.8971 12.8035 11.7541 12.7421 11.6315C12.6808 11.5088 12.1912 10.3032 11.9869 9.8128C11.7883 9.3352 11.5869 9.4 11.436 9.39227C11.2933 9.38533 11.1299 9.38373 10.9664 9.38373C10.8029 9.38373 10.5379 9.44507 10.3133 9.69013C10.0888 9.9352 9.4552 10.5283 9.4552 11.7333C9.4552 12.9384 10.3328 14.1035 10.4555 14.2667C10.5781 14.4299 12.1824 16.9051 14.64 17.9659C15.0961 18.1625 15.5622 18.3347 16.0365 18.4819C16.6232 18.6685 17.1565 18.6419 17.5792 18.5789C18.0496 18.5085 19.0283 17.9864 19.2325 17.4144C19.4368 16.8424 19.4368 16.3517 19.3755 16.2496C19.3141 16.1475 19.1509 16.0861 18.9061 15.9635H18.9067Z" fill="#EC9357"/>
</svg>
