<svg width="28" height="28" viewBox="0 0 28 28" fill="none" xmlns="http://www.w3.org/2000/svg">
<path fill-rule="evenodd" clip-rule="evenodd" d="M24.5791 0C26.4672 0 28 1.53289 28 3.42092V24.5791C28 26.4671 26.4671 28 24.5791 28H3.42092C1.53289 28 0 26.4671 0 24.5791V3.42092C0 1.53289 1.53284 0 3.42092 0L24.5791 0ZM23.4324 9.60477C23.2061 8.75771 22.539 8.09063 21.692 7.86428C20.1564 7.45281 14 7.45281 14 7.45281C14 7.45281 7.84355 7.45281 6.30804 7.86428C5.46115 8.09063 4.79396 8.75771 4.56755 9.60477C4.15625 11.1401 4.15625 14.3435 4.15625 14.3435C4.15625 14.3435 4.15625 17.5469 4.56755 19.0821C4.79396 19.9292 5.46115 20.5964 6.30804 20.8228C7.84355 21.2341 14 21.2341 14 21.2341C14 21.2341 20.1564 21.2341 21.692 20.8228C22.539 20.5964 23.2061 19.9292 23.4324 19.0821C23.8438 17.5469 23.8438 14.3435 23.8438 14.3435C23.8438 14.3435 23.8438 11.1401 23.4324 9.60477ZM12.0311 17.2967V11.3904L17.1461 14.3435L12.0311 17.2967Z" fill="#EC9357"/>
</svg>
